<svg width="20" height="20" viewBox="0 0 20 20" fill="none" xmlns="http://www.w3.org/2000/svg">
<path d="M19.1364 7.41927C19.0788 7.24946 18.9727 7.10025 18.8312 6.99006C18.6897 6.87987 18.519 6.81353 18.3403 6.79922L13.1111 6.38371L10.8483 1.3747C10.7762 1.21337 10.659 1.07634 10.5108 0.980156C10.3626 0.883971 10.1897 0.832739 10.013 0.832642C9.8363 0.832545 9.66335 0.883587 9.51503 0.979609C9.3667 1.07563 9.24934 1.21253 9.1771 1.37378L6.91428 6.38371L1.68513 6.79922C1.50944 6.81314 1.34148 6.87738 1.20134 6.98425C1.0612 7.09113 0.95482 7.23612 0.894925 7.40187C0.83503 7.56762 0.824156 7.74712 0.863603 7.91889C0.903051 8.09066 0.99115 8.24743 1.11736 8.37044L4.98167 12.1375L3.61499 18.0555C3.57349 18.2347 3.58679 18.4221 3.65316 18.5936C3.71954 18.7651 3.83592 18.9127 3.9872 19.0172C4.13849 19.1217 4.3177 19.1783 4.50157 19.1797C4.68545 19.1811 4.8655 19.1272 5.01836 19.025L10.0127 15.6955L15.007 19.025C15.1633 19.1288 15.3475 19.1822 15.535 19.1781C15.7225 19.1739 15.9043 19.1125 16.0558 19.002C16.2073 18.8916 16.3214 18.7373 16.3827 18.5601C16.4439 18.3828 16.4495 18.1911 16.3985 18.0106L14.7209 12.1403L18.8814 8.39612C19.1539 8.15031 19.2538 7.7669 19.1364 7.41927Z" fill="#F3CD03"/>
</svg>
