<svg width="20" height="20" viewBox="0 0 20 20" fill="none" xmlns="http://www.w3.org/2000/svg">
<path d="M4.99748 12.1377L3.6308 18.0557C3.58848 18.2349 3.60118 18.4227 3.66725 18.5945C3.73332 18.7664 3.84969 18.9143 4.00115 19.0191C4.15261 19.1238 4.33213 19.1804 4.51625 19.1814C4.70038 19.1825 4.88056 19.1281 5.03325 19.0252L10.0276 15.6956L15.0219 19.0252C15.1782 19.1289 15.3624 19.1823 15.5499 19.1782C15.7374 19.1741 15.9192 19.1127 16.0707 19.0022C16.2222 18.8917 16.3363 18.7375 16.3976 18.5602C16.4588 18.383 16.4643 18.1912 16.4134 18.0107L14.7358 12.1404L18.8963 8.39628C19.0296 8.27629 19.1247 8.11988 19.17 7.94638C19.2153 7.77289 19.2088 7.58992 19.1512 7.4201C19.0936 7.25029 18.9876 7.10107 18.8461 6.99091C18.7046 6.88075 18.5339 6.81448 18.3552 6.80029L13.126 6.38386L10.8632 1.37485C10.791 1.21356 10.6737 1.0766 10.5255 0.980493C10.3772 0.88439 10.2043 0.833252 10.0276 0.833252C9.8509 0.833252 9.67798 0.88439 9.52971 0.980493C9.38143 1.0766 9.26414 1.21356 9.19199 1.37485L6.92917 6.38386L1.70002 6.79937C1.52433 6.81329 1.35637 6.87753 1.21623 6.98441C1.07609 7.09128 0.969713 7.23627 0.909818 7.40202C0.849923 7.56777 0.839048 7.74727 0.878496 7.91904C0.917944 8.09081 1.00604 8.24758 1.13225 8.37059L4.99748 12.1377ZM7.61435 8.16972C7.77807 8.15682 7.93531 8.10012 8.06957 8.00555C8.20384 7.91098 8.3102 7.78203 8.37749 7.63222L10.0276 3.98071L11.6777 7.63222C11.745 7.78203 11.8513 7.91098 11.9856 8.00555C12.1199 8.10012 12.2771 8.15682 12.4408 8.16972L16.0841 8.45865L13.0838 11.159C12.8233 11.3938 12.7197 11.7552 12.8151 12.0927L13.9644 16.1148L10.5376 13.83C10.3872 13.729 10.2101 13.6751 10.029 13.6751C9.84782 13.6751 9.67077 13.729 9.52036 13.83L5.93948 16.2175L6.90257 12.0478C6.93789 11.8944 6.93315 11.7346 6.88881 11.5836C6.84448 11.4326 6.76203 11.2955 6.64942 11.1856L3.86286 8.46874L7.61435 8.16972Z" fill="#F3CD03"/>
</svg>
